<?xml version="1.0" encoding="utf-8"?>
<!-- Generator: Adobe Illustrator 16.0.0, SVG Export Plug-In . SVG Version: 6.00 Build 0)  -->
<!DOCTYPE svg PUBLIC "-//W3C//DTD SVG 1.1//EN" "http://www.w3.org/Graphics/SVG/1.1/DTD/svg11.dtd">
<svg version="1.1" id="图层_1" xmlns="http://www.w3.org/2000/svg" xmlns:xlink="http://www.w3.org/1999/xlink" x="0px" y="0px"
	 width="100px" height="80px" viewBox="0 0 100 80" enable-background="new 0 0 100 80" xml:space="preserve">
<g>
	<polygon fill="#BFC6D9" points="54.16,41.812 63.822,45.674 72.129,40.404 62.76,36.367 	"/>
	<polygon fill="#BFC6D9" points="42.75,49.291 56.658,54.856 65.002,49.379 51.349,43.847 	"/>
	<linearGradient id="SVGID_1_" gradientUnits="userSpaceOnUse" x1="46.0732" y1="64.4697" x2="51.1065" y2="43.277">
		<stop  offset="0" style="stop-color:#FAFBFE"/>
		<stop  offset="0.9831" style="stop-color:#EAECEE"/>
	</linearGradient>
	<polygon fill="url(#SVGID_1_)" points="8.402,50.942 48.532,70.011 91.598,44.938 51.962,29.896 	"/>
	<linearGradient id="SVGID_2_" gradientUnits="userSpaceOnUse" x1="31.1694" y1="58.9785" x2="58.9863" y2="58.9785">
		<stop  offset="0" style="stop-color:#9CA6AF"/>
		<stop  offset="0.5365" style="stop-color:#BCC2C8"/>
		<stop  offset="0.9831" style="stop-color:#D8DCE0"/>
	</linearGradient>
	<polygon opacity="0.59" fill="url(#SVGID_2_)" points="39.419,51.642 58.986,60.923 50.374,66.315 31.169,57.023 	"/>
	<linearGradient id="SVGID_3_" gradientUnits="userSpaceOnUse" x1="42.458" y1="49.8301" x2="60.9932" y2="49.8301">
		<stop  offset="0" style="stop-color:#9CA6AF"/>
		<stop  offset="0.5365" style="stop-color:#BCC2C8"/>
		<stop  offset="0.9831" style="stop-color:#D8DCE0"/>
	</linearGradient>
	<polygon opacity="0.59" fill="url(#SVGID_3_)" points="50.708,44.747 60.993,49.521 52.381,54.912 42.458,50.129 	"/>
	<linearGradient id="SVGID_4_" gradientUnits="userSpaceOnUse" x1="53.998" y1="43.4648" x2="76.5469" y2="43.4648">
		<stop  offset="0" style="stop-color:#9CA6AF"/>
		<stop  offset="0.5365" style="stop-color:#BCC2C8"/>
		<stop  offset="0.9831" style="stop-color:#D8DCE0"/>
	</linearGradient>
	<polygon opacity="0.59" fill="url(#SVGID_4_)" points="62.248,37.587 76.547,43.951 67.934,49.343 53.998,42.97 	"/>
	<g>
		<linearGradient id="SVGID_5_" gradientUnits="userSpaceOnUse" x1="54.3271" y1="20.2231" x2="54.3271" y2="15.5102">
			<stop  offset="0" style="stop-color:#6CC7E5"/>
			<stop  offset="1" style="stop-color:#35BAEB"/>
		</linearGradient>
		<polygon fill="url(#SVGID_5_)" points="45.904,18.004 54.248,21.322 62.75,16.373 54.722,13.456 		"/>
		<linearGradient id="SVGID_6_" gradientUnits="userSpaceOnUse" x1="50.0776" y1="39.7095" x2="50.0776" y2="24.5942">
			<stop  offset="0" style="stop-color:#56C1DF"/>
			<stop  offset="1" style="stop-color:#A5DAF0"/>
		</linearGradient>
		<polygon fill="url(#SVGID_6_)" points="45.904,18.004 46.189,39.087 54.25,43.234 54.248,21.322 		"/>
		<linearGradient id="SVGID_7_" gradientUnits="userSpaceOnUse" x1="58.4238" y1="39.4756" x2="58.4238" y2="16.8545">
			<stop  offset="0" style="stop-color:#0074AF"/>
			<stop  offset="1" style="stop-color:#3DB5DD"/>
		</linearGradient>
		<polygon fill="url(#SVGID_7_)" points="54.248,21.322 54.25,43.234 62.599,37.985 62.598,16.33 		"/>
	</g>
	<linearGradient id="SVGID_8_" gradientUnits="userSpaceOnUse" x1="8.4023" y1="62.332" x2="48.5322" y2="62.332">
		<stop  offset="0" style="stop-color:#DEE2E6"/>
		<stop  offset="0.9831" style="stop-color:#D8DCE0"/>
	</linearGradient>
	<polygon fill="url(#SVGID_8_)" points="8.402,54.654 8.402,50.942 48.532,70.011 48.532,73.723 	"/>
	<linearGradient id="SVGID_9_" gradientUnits="userSpaceOnUse" x1="88.5898" y1="48.5938" x2="48.9955" y2="71.5434">
		<stop  offset="0" style="stop-color:#C0C7CD"/>
		<stop  offset="0.9831" style="stop-color:#A6AEB7"/>
	</linearGradient>
	<polygon fill="url(#SVGID_9_)" points="91.598,44.938 91.598,48.65 48.532,73.723 48.532,69.939 	"/>
	<g>
		<linearGradient id="SVGID_10_" gradientUnits="userSpaceOnUse" x1="41.3955" y1="36.6597" x2="44.3097" y2="25.5327">
			<stop  offset="0" style="stop-color:#DFDFDE"/>
			<stop  offset="1" style="stop-color:#CFCDCC"/>
		</linearGradient>
		<polygon fill="url(#SVGID_10_)" points="34.113,33.118 42.457,36.438 50.959,31.488 42.931,28.571 		"/>
		<linearGradient id="SVGID_11_" gradientUnits="userSpaceOnUse" x1="38.2856" y1="38.6436" x2="38.2856" y2="46.7936">
			<stop  offset="0" style="stop-color:#ECECEC"/>
			<stop  offset="1" style="stop-color:#DCDCDB"/>
		</linearGradient>
		<polygon fill="url(#SVGID_11_)" points="34.113,33.118 34.398,45.98 42.458,50.129 42.457,36.438 		"/>
		<linearGradient id="SVGID_12_" gradientUnits="userSpaceOnUse" x1="46.6323" y1="37.5132" x2="46.6323" y2="46.4652">
			<stop  offset="0" style="stop-color:#C7C5C5"/>
			<stop  offset="1" style="stop-color:#A09E9A"/>
		</linearGradient>
		<polygon fill="url(#SVGID_12_)" points="42.457,36.438 42.458,50.129 50.808,44.88 50.808,31.444 		"/>
		<polygon opacity="0.51" fill="#FFFFFF" points="42.457,36.438 34.113,33.118 34.486,34.803 35.154,33.875 		"/>
	</g>
	<g>
		<linearGradient id="SVGID_13_" gradientUnits="userSpaceOnUse" x1="32.1079" y1="13.2451" x2="29.0376" y2="7.4456">
			<stop  offset="0" style="stop-color:#FBC300"/>
			<stop  offset="1" style="stop-color:#F0A900"/>
		</linearGradient>
		<polygon fill="url(#SVGID_13_)" points="22.824,12.435 31.167,15.754 39.67,10.804 31.642,7.887 		"/>
		<linearGradient id="SVGID_14_" gradientUnits="userSpaceOnUse" x1="26.9966" y1="26.9175" x2="26.9966" y2="48.28">
			<stop  offset="0" style="stop-color:#FEDE00"/>
			<stop  offset="1" style="stop-color:#F7AF00"/>
		</linearGradient>
		<polygon fill="url(#SVGID_14_)" points="22.824,12.435 23.109,52.876 31.169,57.023 31.167,15.754 		"/>
		<linearGradient id="SVGID_15_" gradientUnits="userSpaceOnUse" x1="35.3433" y1="18.4175" x2="35.3433" y2="58.5138">
			<stop  offset="0" style="stop-color:#F4A000"/>
			<stop  offset="0.9299" style="stop-color:#E78200"/>
			<stop  offset="0.9831" style="stop-color:#E68000"/>
		</linearGradient>
		<polygon fill="url(#SVGID_15_)" points="31.167,15.754 31.169,57.023 39.52,51.774 39.518,10.761 		"/>
		<polygon opacity="0.51" fill="#FFFFFF" points="31.167,15.754 22.824,12.435 23.197,39.046 23.865,13.191 		"/>
	</g>
	<polygon fill="#FFFFFF" points="91.598,44.938 48.532,69.939 8.402,50.942 49.454,68.525 	"/>
</g>
</svg>
